<svg width="23" height="23" viewBox="0 0 23 23" fill="none" xmlns="http://www.w3.org/2000/svg">
<path fill-rule="evenodd" clip-rule="evenodd" d="M2.86987 0C4.45257 0 5.73913 1.24062 5.73913 2.76978C5.73913 4.29715 4.45257 5.53777 2.86987 5.53777C1.28285 5.53777 0 4.29715 0 2.76978C0 1.24062 1.28285 0 2.86987 0V0ZM0.393201 23H5.34655V7.63686H0.393201V23Z" fill="white"/>
<path fill-rule="evenodd" clip-rule="evenodd" d="M8 8.03768H12.4127V10.0837H12.4759C13.0899 8.90685 14.5909 7.66667 16.8288 7.66667C21.4879 7.66667 22.3478 10.7648 22.3478 14.7937V23H17.749V15.7232C17.749 13.9878 17.7186 11.7559 15.3583 11.7559C12.9641 11.7559 12.5988 13.6475 12.5988 15.599V23H8V8.03768" fill="white"/>
</svg>
