<svg width="26" height="18" viewBox="0 0 26 18" fill="none" xmlns="http://www.w3.org/2000/svg">
<path fill-rule="evenodd" clip-rule="evenodd" d="M1.98939 17.4587C4.32874 15.0994 7.14024 12.2738 9.01473 10.3963C9.1867 10.5681 9.35134 10.7326 9.50734 10.8886C11.46 12.8412 14.6258 12.8412 16.5784 10.8886C16.7175 10.7495 16.8687 10.5978 17.0301 10.4353C18.3911 11.7932 21.2639 14.6606 22.512 15.9114C22.5675 15.967 22.5675 15.967 22.623 16.0226C23.1187 16.5195 23.5902 16.9929 24.0376 17.4428C23.4408 17.7968 22.7441 18 22 18H4C3.26704 18 2.58013 17.8029 1.98939 17.4587ZM0.56648 16.0532C0.206777 15.453 0 14.7507 0 14V4C0 3.25779 0.202147 2.5628 0.554389 1.96707C1.51472 2.92225 4.91614 6.30699 7.59922 8.98334C5.72225 10.8633 2.90794 13.6918 0.56648 16.0532ZM24.0388 14.61C23.9833 14.5543 23.9833 14.5543 23.9278 14.4987C22.6759 13.2442 19.7941 10.3677 18.4363 9.01305C21.0004 6.4101 24.5015 2.81872 25.4047 1.89937C25.7821 2.50987 26 3.2295 26 4V14C26 14.7395 25.7993 15.4321 25.4495 16.0263C25.0032 15.5774 24.533 15.1054 24.0388 14.61ZM15.1642 9.47441C13.9926 10.646 12.0931 10.646 10.9216 9.47441C8.28414 6.837 3.1822 1.75994 1.969 0.553247C2.5643 0.20171 3.25859 0 4 0H22C22.7131 0 23.3826 0.186609 23.9624 0.513659C22.7447 1.75357 17.3913 7.24733 15.1642 9.47441Z" fill="white"/>
</svg>
