<svg width="26" height="21" viewBox="0 0 26 21" fill="none" xmlns="http://www.w3.org/2000/svg">
<path fill-rule="evenodd" clip-rule="evenodd" d="M2.96073 12.7288C3.26505 12.7835 3.57855 12.8121 3.89879 12.8121C4.46261 12.8121 5.00555 12.7235 5.51423 12.5597C3.02062 12.1694 1.11394 10.0302 1.11394 7.44986C1.11394 7.40984 1.1144 7.36993 1.11531 7.33012C1.85366 7.74553 2.70423 7.98777 3.61079 8.00112C2.1131 7.09164 1.11394 5.45491 1.11394 3.58697C1.11394 2.61713 1.38328 1.70963 1.8519 0.933875C4.5072 4.08041 8.40277 6.16413 12.7939 6.44717C12.7135 6.08126 12.6711 5.70127 12.6711 5.31147C12.6711 2.37803 15.0712 0 18.0319 0C19.5787 0 20.9725 0.649064 21.9509 1.6873C23.165 1.49621 24.2934 1.05025 25.2785 0.406492C24.9151 1.63568 24.0881 2.66864 22.9978 3.30692C24.0651 3.20858 25.0734 2.92138 26 2.49029C25.3362 3.56664 24.4445 4.49 23.3915 5.19452C23.3923 5.23341 23.3927 5.27239 23.3927 5.31147C23.3927 5.41511 23.3905 5.81686 23.3905 5.91623C23.3905 14.2023 16.6109 20.9194 8.24786 20.9194C5.20567 20.9194 2.37301 20.0306 0 18.5007C0.421786 18.5492 0.850824 18.5741 1.28574 18.5741C3.80495 18.5741 6.127 17.7377 7.98442 16.3299C5.60629 16.3301 3.63236 14.8173 2.96073 12.7288Z" fill="white"/>
</svg>
