<svg width="23" height="23" viewBox="0 0 23 23" fill="none" xmlns="http://www.w3.org/2000/svg">
<path fill-rule="evenodd" clip-rule="evenodd" d="M11.5 23C5.15886 23 0 17.8411 0 11.5C0 5.15886 5.15886 0 11.5 0C17.8411 0 23 5.15886 23 11.5C23 17.8411 17.8411 23 11.5 23ZM21.1985 13.0742C20.8625 12.9681 18.1582 12.1616 15.0799 12.6543C16.3647 16.1848 16.8875 19.0604 16.9882 19.6578C19.192 18.1677 20.7607 15.8073 21.1985 13.0742ZM13.2415 13.1081C14.6205 16.6918 15.1909 19.6953 15.337 20.5571C12.0575 21.95 8.28055 21.4551 5.47072 19.2642C5.64742 18.9028 7.6363 15.0606 13.1767 13.13C13.1895 13.1256 13.2022 13.1213 13.215 13.1171L13.2415 13.1081ZM4.20243 18.0828C4.42492 17.7019 7.12075 13.2383 12.1867 11.6008C12.3148 11.5594 12.4438 11.5205 12.5738 11.484C12.3272 10.926 12.0587 10.3673 11.7775 9.81703C6.87205 11.2851 2.112 11.2237 1.68222 11.2149C1.67923 11.3146 1.67722 11.4146 1.67722 11.5151C1.67533 13.9417 2.57532 16.2825 4.20243 18.0828ZM10.9657 8.30635C6.37112 9.52652 2.32404 9.50894 1.88471 9.50316C2.52164 6.45504 4.5759 3.92171 7.3239 2.62551C7.58284 2.98065 9.33817 5.41325 10.9657 8.30635ZM9.19812 1.96527C9.46965 2.3288 11.2537 4.75829 12.8633 7.71554C16.3561 6.40637 17.8349 4.41893 18.0116 4.1673C15.611 2.03544 12.3193 1.21301 9.19812 1.96527ZM13.6185 9.17629C17.2505 7.6935 18.8964 5.58351 19.1034 5.30328C20.52 7.02969 21.3028 9.18905 21.3216 11.4222C20.9977 11.3537 17.7502 10.695 14.4818 11.106C14.413 10.9378 14.3425 10.7688 14.2702 10.5991C14.0662 10.1201 13.8471 9.64419 13.6185 9.17629Z" fill="white"/>
</svg>
