<svg width="26" height="21" viewBox="0 0 26 21" fill="none" xmlns="http://www.w3.org/2000/svg">
<path d="M3.0831 4.28395C3.1154 3.95924 2.99369 3.6383 2.75537 3.41975L0.327731 0.444444V0H7.86555L13.6919 13L18.8142 0H26V0.444444L23.9244 2.46914C23.7454 2.60791 23.6567 2.83599 23.6937 3.06173V17.9383C23.6567 18.164 23.7454 18.3921 23.9244 18.5309L25.9514 20.5556V21H15.7554V20.5556L17.8553 18.4815C18.0616 18.2716 18.0616 18.2099 18.0616 17.8889V5.8642L12.2232 20.9506H11.4342L4.63679 5.8642V15.9753C4.58011 16.4004 4.71889 16.8284 5.01307 17.1358L7.74416 20.5062V20.9506H0V20.5062L2.73109 17.1358C3.02314 16.8279 3.15382 16.3971 3.0831 15.9753V4.28395Z" fill="white"/>
</svg>
